<svg id="svg" version="1.1" xmlns="http://www.w3.org/2000/svg" xmlns:xlink="http://www.w3.org/1999/xlink" width="400" height="400" viewBox="0, 0, 400,400"><g id="svgg"><path id="path0" d="M148.333 6.311 C -1.082 49.913,-49.171 231.164,59.697 340.384 C 170.078 451.121,355.318 399.806,394.768 247.564 C 431.768 104.774,289.200 -34.796,148.333 6.311 M235.221 26.919 C 371.444 51.615,424.528 223.884,326.667 323.682 C 242.069 409.953,94.771 387.332,42.230 280.000 C -23.311 146.112,87.942 0.219,235.221 26.919 M192.741 65.752 C 189.933 69.005,166.954 98.667,141.677 131.667 C 116.400 164.667,94.518 193.217,93.050 195.112 C 83.904 206.918,96.988 206.304,128.462 193.449 C 146.571 186.052,162.549 180.000,163.968 180.000 C 165.387 180.000,166.950 216.223,167.441 260.495 L 168.333 340.991 199.228 340.989 C 237.774 340.987,233.846 350.382,233.654 258.646 C 233.564 215.391,234.707 180.000,236.194 180.000 C 237.681 180.000,253.681 186.015,271.749 193.367 C 323.711 214.509,325.470 218.637,229.202 93.553 C 202.570 58.950,200.184 57.130,192.741 65.752 " stroke="none" fill="#000000" fill-rule="evenodd"></path></g></svg>